<svg xmlns="http://www.w3.org/2000/svg" width="1920" height="1080" viewBox="0 0 1920 1080" version="1.1"><path d="M 955.655 56.829 C 952.148 60.704, 954.975 67, 960.223 67 C 962.744 67, 966 63.425, 966 60.655 C 966 55.686, 959.024 53.106, 955.655 56.829 M 1606.495 471 C 1606.495 690.725, 1606.610 780.612, 1606.750 670.750 C 1606.890 560.888, 1606.890 381.113, 1606.750 271.250 C 1606.610 161.387, 1606.495 251.275, 1606.495 471 M 324 918.533 C 292.466 954.860, 291.517 956, 292.822 956 C 294.433 956, 354.102 891.974, 353.459 890.934 C 353.102 890.356, 561.340 890, 900.608 890 C 1201.857 890, 1448.146 889.836, 1447.917 889.636 C 1447.687 889.435, 1200.675 888.987, 899 888.638 L 350.500 888.005 324 918.533 M 1566.690 891.790 C 1565.106 893.541, 1566.577 895.145, 1597.263 925.127 C 1614.993 942.451, 1630.399 956.963, 1631.498 957.376 C 1633.181 958.009, 1633.082 957.683, 1630.871 955.314 C 1609.431 932.336, 1569.664 890.435, 1569.097 890.226 C 1568.688 890.075, 1567.605 890.779, 1566.690 891.790 M 358.098 893.265 C 356.777 893.944, 355.202 895.327, 354.598 896.337 C 353.994 897.348, 351.925 899.841, 350 901.877 C 343.658 908.585, 337.758 915.460, 336.162 918 C 334.413 920.785, 329.372 926.928, 325.086 931.500 C 323.539 933.150, 321.033 936.188, 319.518 938.250 C 318.003 940.313, 316.254 942.015, 315.631 942.033 C 314.137 942.076, 307.479 949.914, 306.610 952.653 C 305.993 954.599, 306.381 954.862, 310.714 955.429 C 313.346 955.774, 331.858 955.930, 351.852 955.778 L 388.204 955.500 391.594 951.500 C 393.458 949.300, 395.242 946.712, 395.559 945.750 C 395.933 944.612, 397.160 944, 399.067 944 C 400.680 944, 402 944.205, 402 944.456 C 402 944.706, 400.875 946.569, 399.500 948.595 C 396.235 953.407, 396.346 954.619, 400.125 955.375 C 404.186 956.187, 471.343 956.169, 476.271 955.355 C 479.501 954.821, 480.506 953.965, 483.271 949.394 C 485.902 945.045, 487.009 944.051, 489.250 944.028 C 490.762 944.013, 492 944.257, 492 944.572 C 492 944.886, 490.855 947.098, 489.456 949.485 C 487.470 952.873, 487.196 954.011, 488.206 954.664 C 489.764 955.671, 555.954 956.404, 564.571 955.509 L 570.643 954.879 573.310 949.440 C 575.690 944.587, 576.315 944, 579.096 944 C 581.199 944, 582.046 944.407, 581.698 945.250 C 581.414 945.938, 580.470 948.163, 579.600 950.197 C 578.362 953.089, 578.288 954.068, 579.259 954.697 C 580.795 955.691, 647.164 956.382, 655.723 955.493 L 661.946 954.847 663.656 949.423 C 665.273 944.292, 665.544 944, 668.683 944 C 670.507 944, 672 944.145, 672 944.322 C 672 944.499, 671.274 946.773, 670.388 949.376 C 669.501 951.979, 669.088 954.422, 669.471 954.804 C 670.335 955.669, 1129.514 956.328, 1136.750 955.475 C 1140.847 954.992, 1142 954.472, 1142 953.106 C 1142 950.336, 1138.909 942, 1137.881 942 C 1136.993 942, 1136.107 940.196, 1134.566 935.250 C 1133.933 933.217, 1134.197 933, 1137.303 933 C 1140.533 933, 1140.817 933.276, 1142.025 937.590 C 1142.732 940.114, 1144.028 942.476, 1144.905 942.840 C 1145.782 943.203, 1146.548 943.950, 1146.607 944.500 C 1146.667 945.050, 1147.280 947.612, 1147.971 950.192 C 1149.225 954.877, 1149.236 954.886, 1154.364 955.514 C 1160.777 956.299, 1231.611 955.726, 1232.453 954.882 C 1233.420 953.913, 1228.974 942.927, 1227.365 942.310 C 1226.041 941.802, 1223 935.927, 1223 933.878 C 1223 933.395, 1224.290 933, 1225.867 933 C 1228.363 933, 1229.002 933.646, 1230.811 938 C 1231.954 940.750, 1233.479 943, 1234.200 943 C 1234.920 943, 1236.546 945.671, 1237.812 948.935 L 1240.113 954.870 1245.306 955.507 C 1252.557 956.396, 1321.224 955.679, 1322.738 954.698 C 1324.362 953.647, 1318.823 942.402, 1316.273 941.574 C 1315.298 941.257, 1313.746 939.199, 1312.824 936.999 L 1311.149 933 1314.012 933 C 1316.414 933, 1317.309 933.796, 1319.566 937.944 C 1322.138 942.669, 1322.484 942.916, 1327.379 943.516 C 1334.422 944.380, 1402.654 943.683, 1403.597 942.737 C 1404.016 942.318, 1403.502 940.293, 1402.455 938.237 C 1401.409 936.182, 1400.390 934.163, 1400.193 933.750 C 1399.995 933.337, 1401.558 933.008, 1403.667 933.018 C 1407.139 933.034, 1407.797 933.491, 1410.662 937.873 C 1414.148 943.206, 1416.192 943.968, 1427.080 943.989 C 1432.601 944, 1432.697 944.051, 1435.982 948.750 C 1437.809 951.362, 1439.996 954.063, 1440.843 954.750 C 1442.017 955.704, 1451.763 955.996, 1481.941 955.985 C 1503.699 955.976, 1522.006 955.639, 1522.624 955.235 C 1524.087 954.279, 1522.900 951.349, 1519.491 947.500 L 1516.834 944.500 1560.344 943.989 C 1584.275 943.708, 1604.166 943.168, 1604.546 942.788 C 1605.412 941.922, 1586.735 921.731, 1583.433 919.964 C 1582.095 919.248, 1581 918.284, 1581 917.823 C 1581 917.361, 1575.468 911.362, 1568.706 904.492 L 1556.412 892 1520.241 892 C 1484.971 892, 1484.043 892.050, 1482.989 894.021 C 1482.394 895.132, 1482.180 896.482, 1482.513 897.021 C 1482.869 897.597, 1481.482 898, 1479.142 898 C 1475.957 898, 1474.769 897.453, 1473.164 895.250 L 1471.162 892.500 1435.831 892.208 C 1400.735 891.919, 1395.367 892.167, 1396.518 894.029 C 1396.848 894.563, 1396.656 895, 1396.090 895 C 1395.525 895, 1395.322 895.675, 1395.638 896.500 C 1396.086 897.667, 1395.391 898, 1392.508 898 C 1389.680 898, 1388.139 897.289, 1386 895 L 1383.198 892 1347.134 892 C 1311.971 892, 1311.043 892.050, 1309.989 894.021 C 1309.394 895.132, 1309.180 896.482, 1309.513 897.021 C 1309.874 897.605, 1308.272 898, 1305.538 898 C 1301.665 898, 1300.787 897.627, 1299.857 895.585 C 1299.251 894.256, 1297.799 892.913, 1296.628 892.598 C 1295.458 892.284, 1278.895 892.021, 1259.821 892.014 C 1229.098 892.002, 1224.957 892.186, 1223.514 893.629 C 1222.618 894.525, 1222.122 895.875, 1222.411 896.629 C 1222.808 897.663, 1221.848 898, 1218.504 898 C 1214.924 898, 1213.842 897.567, 1212.885 895.750 C 1212.234 894.512, 1211.205 893.169, 1210.600 892.765 C 1209.995 892.361, 1193.373 892.024, 1173.663 892.015 L 1137.826 892 1136.694 895 C 1135.679 897.690, 1135.119 898, 1131.281 898 C 1128.926 898, 1127 897.550, 1127 897 C 1127 896.450, 1126.100 895.100, 1125 894 C 1123.075 892.075, 1121.667 892, 1087.571 892 C 1056.697 892, 1051.941 892.202, 1050.571 893.571 C 1049.707 894.436, 1049 895.786, 1049 896.571 C 1049 897.598, 1047.733 898, 1044.500 898 C 1041.267 898, 1040 897.598, 1040 896.571 C 1040 895.786, 1039.293 894.436, 1038.429 893.571 C 1037.058 892.201, 1032.294 892.002, 1001.179 892.015 C 981.555 892.024, 964.915 892.402, 964.200 892.855 C 963.485 893.309, 962.827 894.652, 962.737 895.840 C 962.595 897.730, 961.976 898, 957.787 898 C 954.305 898, 953 897.611, 953 896.571 C 953 895.786, 952.293 894.436, 951.429 893.571 C 950.059 892.202, 945.310 892, 914.500 892 C 883.690 892, 878.941 892.202, 877.571 893.571 C 876.707 894.436, 876 895.786, 876 896.571 C 876 897.619, 874.667 898, 871 898 C 866.393 898, 866 897.812, 866 895.607 C 866 894.291, 865.288 892.941, 864.418 892.607 C 863.548 892.273, 846.930 892, 827.490 892 C 796.690 892, 791.941 892.202, 790.571 893.571 C 789.707 894.436, 789 895.786, 789 896.571 C 789 897.598, 787.733 898, 784.500 898 C 781.267 898, 780 897.598, 780 896.571 C 780 895.786, 779.293 894.436, 778.429 893.571 C 777.059 892.202, 772.303 892, 741.429 892 C 707.333 892, 705.925 892.075, 704 894 C 702.900 895.100, 702 896.424, 702 896.943 C 702 897.461, 700.087 898.023, 697.750 898.193 C 693.807 898.478, 693.428 898.283, 692.500 895.500 L 691.500 892.500 656.500 892.221 C 637.250 892.068, 620.496 892.187, 619.268 892.486 C 618.041 892.784, 616.342 894.372, 615.493 896.014 C 614.165 898.581, 613.382 899, 609.907 899 C 606.395 899, 605.944 898.752, 606.467 897.105 C 606.818 895.999, 606.400 894.543, 605.463 893.605 C 604.050 892.193, 599.694 892.002, 569.179 892.014 C 550.105 892.021, 533.566 892.278, 532.424 892.585 C 531.281 892.892, 529.569 894.460, 528.617 896.071 C 527.263 898.364, 526.174 899, 523.602 899 C 520.690 899, 520.009 899.567, 517.597 904 C 515.275 908.265, 514.439 909, 511.908 909 L 508.940 909 511.220 905.008 C 512.490 902.783, 514.265 901.012, 515.227 901.008 C 517.960 900.996, 520.382 896.582, 519.036 894.067 C 517.949 892.036, 517.297 892, 481.833 892 L 445.736 892 442.435 895.500 C 440.620 897.425, 438.505 899, 437.737 899 C 436.968 899, 434.885 901.025, 433.107 903.500 C 430.766 906.760, 429.191 908, 427.390 908 L 424.904 908 428.202 903.382 C 430.016 900.842, 432.083 897.969, 432.795 896.998 C 433.875 895.525, 433.822 894.965, 432.473 893.616 C 431.046 892.189, 426.752 892.002, 395.679 892.015 C 369.748 892.026, 359.869 892.354, 358.098 893.265 M 552.573 900.890 C 550.785 901.596, 550.773 901.699, 552.405 902.325 C 555.034 903.334, 556.735 903.121, 555 902 C 553.825 901.241, 554.078 901.027, 556.167 901.015 C 557.633 901.007, 559.012 901.535, 559.229 902.188 C 559.516 903.049, 560.226 902.955, 561.809 901.846 C 563.904 900.379, 563.800 900.313, 559.246 900.224 C 556.636 900.173, 553.633 900.473, 552.573 900.890 M 972.982 901.011 C 972.124 901.541, 972.099 901.943, 972.893 902.434 C 973.502 902.810, 974 902.744, 974 902.287 C 974 901.283, 982.274 901.433, 983.947 902.467 C 984.599 902.870, 985.367 902.967, 985.652 902.681 C 987.488 900.845, 975.752 899.299, 972.982 901.011 M 596 905 L 593.959 909 596.959 909 C 599.453 909, 600.304 908.324, 602 905 L 604.041 901 601.041 901 C 598.547 901, 597.696 901.676, 596 905 M 680.946 903.750 C 680.393 905.263, 679.743 907.063, 679.502 907.750 C 679.215 908.567, 680.086 909, 682.018 909 C 684.469 909, 685.231 908.382, 686.487 905.378 C 688.420 900.751, 688.506 901, 684.975 901 C 682.586 901, 681.739 901.578, 680.946 903.750 M 765.647 902.750 C 765.378 903.712, 764.868 905.513, 764.512 906.750 C 763.941 908.738, 764.226 909, 766.957 909 C 769.356 909, 770.268 908.425, 771.025 906.435 C 772.658 902.138, 772.248 901, 769.067 901 C 767.127 901, 765.970 901.592, 765.647 902.750 M 850 903.418 C 850 904.748, 849.714 906.581, 849.365 907.492 C 848.838 908.864, 849.308 909.092, 852.115 908.823 C 855.236 908.525, 855.524 908.208, 855.810 904.750 C 856.107 901.166, 855.985 901, 853.060 901 C 850.490 901, 850 901.387, 850 903.418 M 934.186 904.682 C 934.474 908.188, 934.745 908.500, 937.500 908.500 C 940.262 908.500, 940.500 908.222, 940.500 905 C 940.500 901.768, 940.246 901.476, 937.186 901.182 C 933.910 900.867, 933.875 900.909, 934.186 904.682 M 1019.190 904.750 C 1019.474 908.181, 1019.755 908.500, 1022.500 908.500 C 1024.287 908.500, 1025.460 907.994, 1025.400 907.250 C 1025.345 906.563, 1025.233 904.875, 1025.150 903.500 C 1025.025 901.411, 1024.497 901, 1021.940 901 C 1019.015 901, 1018.893 901.166, 1019.190 904.750 M 1103 902.435 C 1103 903.224, 1103.439 905.024, 1103.975 906.435 C 1104.736 908.435, 1105.641 909, 1108.082 909 C 1110.536 909, 1111.082 908.655, 1110.603 907.407 C 1110.267 906.531, 1109.720 904.731, 1109.387 903.407 C 1108.923 901.559, 1108.112 901, 1105.892 901 C 1104.046 901, 1103 901.519, 1103 902.435 M 1187 901.378 C 1187 901.586, 1187.681 903.386, 1188.513 905.378 C 1189.677 908.164, 1190.601 909, 1192.513 909 C 1195.281 909, 1195.644 907.508, 1193.839 903.547 C 1192.993 901.688, 1191.912 901, 1189.839 901 C 1188.278 901, 1187 901.170, 1187 901.378 M 1272 901.953 C 1272 902.477, 1272.522 904.052, 1273.161 905.453 C 1274.007 907.312, 1275.088 908, 1277.161 908 C 1280.456 908, 1280.499 907.866, 1278.474 903.950 C 1277.408 901.889, 1276.203 901, 1274.474 901 C 1273.113 901, 1272 901.429, 1272 901.953 M 1357.701 904.500 C 1359.025 907.276, 1359.953 908, 1362.185 908 C 1365.550 908, 1365.611 907.666, 1362.932 903.904 C 1361.626 902.071, 1359.973 901, 1358.448 901 C 1356.036 901, 1356.035 901.005, 1357.701 904.500 M 1441.199 901.750 C 1444.258 908.030, 1444.223 908, 1448.696 908 C 1453.357 908, 1453.439 907.556, 1449.657 902.750 C 1448.314 901.044, 1440.399 900.108, 1441.199 901.750 M 1062 913.418 C 1062 917.620, 1063.046 919, 1066.232 919 C 1069.079 919, 1069.215 918.823, 1068.625 915.875 C 1068.281 914.156, 1068 912.356, 1068 911.875 C 1068 911.394, 1066.650 911, 1065 911 C 1062.494 911, 1062 911.398, 1062 913.418 M 1147.369 912.519 C 1147.721 913.436, 1148.280 915.269, 1148.613 916.593 C 1149.100 918.535, 1149.863 919, 1152.556 919 L 1155.895 919 1154.603 915.250 C 1153.506 912.065, 1152.816 911.451, 1150.021 911.177 C 1147.293 910.909, 1146.839 911.139, 1147.369 912.519 M 1233.397 912.593 C 1233.733 913.469, 1234.280 915.269, 1234.613 916.593 C 1235.099 918.529, 1235.864 919, 1238.528 919 L 1241.839 919 1240.268 915 C 1238.928 911.590, 1238.261 911, 1235.741 911 C 1233.449 911, 1232.923 911.357, 1233.397 912.593 M 1319 911.919 C 1319 912.424, 1319.787 914.222, 1320.750 915.913 C 1322.036 918.172, 1323.229 918.989, 1325.250 918.994 C 1328.548 919.001, 1328.543 919.034, 1325.901 914.557 C 1324.423 912.051, 1323.093 911, 1321.401 911 C 1320.081 911, 1319 911.414, 1319 911.919 M 1405.932 913.904 C 1407.069 915.502, 1408 917.302, 1408 917.904 C 1408 918.507, 1409.350 919, 1411 919 C 1414.594 919, 1414.609 918.911, 1411.750 914.498 C 1410.065 911.896, 1408.793 911.022, 1406.682 911.012 L 1403.864 911 1405.932 913.904 M 1492.685 914.979 C 1494.813 917.986, 1496.185 918.963, 1498.306 918.979 L 1501.113 919 1497.806 915.018 C 1495.714 912.498, 1493.650 911.029, 1492.185 911.018 L 1489.870 911 1492.685 914.979 M 461.068 914.904 C 458.370 918.693, 458.440 919, 462 919 C 463.881 919, 465 918.486, 465 917.622 C 465 916.865, 465.675 915.685, 466.500 915 C 468.699 913.175, 468.334 912, 465.568 912 C 464.025 912, 462.380 913.062, 461.068 914.904 M 546.701 915.500 L 545.032 919 547.856 919 C 550.553 919, 550.970 918.561, 553.801 912.750 C 554.002 912.337, 552.863 912, 551.269 912 C 548.941 912, 548.042 912.689, 546.701 915.500 M 583.500 913.576 C 584.810 914.567, 586.363 914.843, 588 914.376 C 589.375 913.984, 591.625 913.746, 593 913.848 C 599.545 914.330, 601.206 914.193, 602.309 913.078 C 603.237 912.140, 602.846 912.121, 600.538 912.993 C 598.320 913.831, 597.022 913.815, 595.369 912.930 C 593.721 912.048, 592.355 912.029, 589.982 912.856 C 587.855 913.598, 586.195 913.639, 584.967 912.982 C 582.178 911.490, 581.242 911.869, 583.500 913.576 M 632.945 914.644 C 632.392 916.098, 631.702 917.673, 631.411 918.144 C 631.120 918.615, 632.431 919, 634.324 919 C 636.744 919, 637.916 918.480, 638.270 917.250 C 638.547 916.288, 639.097 914.712, 639.494 913.750 C 640.089 912.302, 639.673 912, 637.082 912 C 634.616 912, 633.737 912.562, 632.945 914.644 M 718.261 915.500 L 717.187 919 720.426 919 C 723.256 919, 723.800 918.558, 724.739 915.500 L 725.813 912 722.574 912 C 719.744 912, 719.200 912.442, 718.261 915.500 M 804.630 914.250 C 803.486 918.521, 803.842 919.142, 807.250 918.813 C 810.108 918.538, 810.538 918.108, 810.813 915.250 C 811.103 912.248, 810.902 912, 808.180 912 C 805.969 912, 805.083 912.562, 804.630 914.250 M 890 915.500 C 890 918.833, 890.167 919, 893.500 919 C 896.833 919, 897 918.833, 897 915.500 C 897 912.167, 896.833 912, 893.500 912 C 890.167 912, 890 912.167, 890 915.500 M 976 915.500 C 976 918.833, 976.167 919, 979.500 919 C 982.833 919, 983 918.833, 983 915.500 C 983 912.167, 982.833 912, 979.500 912 C 976.167 912, 976 912.167, 976 915.500 M 473.250 925.498 C 472.012 927.409, 471 929.203, 471 929.486 C 471 929.769, 472.688 929.996, 474.750 929.992 C 478.092 929.984, 478.736 929.549, 480.667 925.992 L 482.834 922 479.167 922.012 C 476.086 922.023, 475.140 922.580, 473.250 925.498 M 562 926 L 559.959 930 563.230 929.990 C 566.093 929.981, 566.708 929.484, 568.176 925.990 L 569.851 922 566.946 922 C 564.563 922, 563.674 922.719, 562 926 M 649.513 925.622 C 647.581 930.246, 647.498 930, 650.987 930 C 653.474 930, 654.226 929.394, 655.487 926.378 C 657.419 921.754, 657.502 922, 654.013 922 C 651.526 922, 650.774 922.606, 649.513 925.622 M 736.625 925.125 C 735.685 929.824, 735.769 930, 738.933 930 C 741.869 930, 741.924 929.926, 743.647 923.750 C 744.043 922.328, 743.490 922, 740.692 922 C 737.637 922, 737.180 922.351, 736.625 925.125 M 824 924.418 C 824 925.748, 823.727 927.548, 823.393 928.418 C 822.911 929.674, 823.504 930, 826.268 930 C 829.368 930, 829.819 929.657, 830.375 926.875 C 831.325 922.124, 831.252 922, 827.500 922 C 824.465 922, 824 922.321, 824 924.418 M 911 926 C 911 929.905, 911.083 930, 914.500 930 C 917.917 930, 918 929.905, 918 926 C 918 922.095, 917.917 922, 914.500 922 C 911.083 922, 911 922.095, 911 926 M 998 924.418 C 998 928.568, 999.054 930, 1002.107 930 C 1004.816 930, 1005 929.745, 1005 926 C 1005 922.095, 1004.917 922, 1001.500 922 C 998.465 922, 998 922.321, 998 924.418 M 1085.538 925.250 C 1086.507 929.769, 1086.731 930, 1090.138 930 C 1093.022 930, 1093.127 929.853, 1092.462 926.750 C 1091.493 922.231, 1091.269 922, 1087.862 922 C 1084.978 922, 1084.873 922.147, 1085.538 925.250 M 1172.369 923.519 C 1172.721 924.436, 1173.280 926.269, 1173.613 927.593 C 1174.100 929.535, 1174.863 930, 1177.556 930 L 1180.895 930 1179.603 926.250 C 1178.506 923.065, 1177.816 922.451, 1175.021 922.177 C 1172.293 921.909, 1171.839 922.139, 1172.369 923.519 M 1259 922.466 C 1259 922.722, 1259.758 924.522, 1260.685 926.466 C 1262.025 929.275, 1262.948 930, 1265.185 930 C 1268.483 930, 1268.413 930.234, 1266.487 925.622 C 1265.226 922.606, 1264.474 922, 1261.987 922 C 1260.344 922, 1259 922.210, 1259 922.466 M 1348 926 C 1349.706 929.344, 1350.540 930, 1353.084 930 L 1356.128 930 1353.880 926 C 1352.082 922.802, 1351.063 922, 1348.796 922 L 1345.959 922 1348 926 M 1435.619 926 C 1438.207 929.911, 1438.396 930, 1444.133 930 C 1447.360 930, 1450 929.769, 1450 929.486 C 1450 929.203, 1448.987 927.409, 1447.750 925.498 C 1445.578 922.146, 1445.282 922.024, 1439.236 922.012 L 1432.972 922 1435.619 926 M 351 924 C 349.075 924.405, 348.239 924.796, 349.143 924.868 C 350.047 924.941, 351.045 925.675, 351.362 926.500 C 352.142 928.533, 357.236 928.371, 363.796 926.106 L 369.091 924.276 365.296 923.649 C 360.697 922.889, 355.693 923.012, 351 924 M 512.099 936.557 C 510.944 938.514, 510 940.314, 510 940.557 C 510 940.801, 511.942 941, 514.315 941 C 518.269 941, 518.770 940.705, 520.315 937.466 C 521.242 935.522, 522 933.722, 522 933.466 C 522 933.210, 520.244 933, 518.099 933 C 514.688 933, 513.934 933.447, 512.099 936.557 M 603 937 L 600.959 941 604.294 941 C 607.128 941, 607.883 940.468, 609.315 937.466 C 611.486 932.912, 611.512 933, 608.020 933 C 605.551 933, 604.691 933.685, 603 937 M 691.732 937 L 690.161 941 693.521 941 C 697.286 941, 697.484 940.809, 698.462 936.250 C 699.124 933.165, 699.011 933, 696.231 933 C 693.744 933, 693.067 933.602, 691.732 937 M 780.630 935.250 C 779.384 939.900, 779.844 941, 783.031 941 C 786.096 941, 786.352 940.696, 787.436 935.750 C 788.001 933.171, 787.827 933, 784.636 933 C 781.953 933, 781.106 933.476, 780.630 935.250 M 869 937 C 869 940.905, 869.083 941, 872.500 941 C 875.917 941, 876 940.905, 876 937 C 876 933.095, 875.917 933, 872.500 933 C 869.083 933, 869 933.095, 869 937 M 958 937 C 958 940.929, 958.064 941, 961.617 941 C 964.879 941, 965.174 940.780, 964.630 938.750 C 964.299 937.513, 964.021 935.712, 964.014 934.750 C 964.004 933.475, 963.185 933, 961 933 C 958.167 933, 958 933.222, 958 937 M 1046.014 934.750 C 1046.051 939.515, 1047.170 941, 1050.724 941 C 1053.496 941, 1054.089 940.674, 1053.607 939.418 C 1053.273 938.548, 1053 936.748, 1053 935.418 C 1053 933.321, 1052.535 933, 1049.500 933 C 1046.828 933, 1046.003 933.414, 1046.014 934.750 M 340.500 935.907 C 336.874 936.472, 336.734 936.597, 339 937.251 C 342.112 938.149, 353.643 938.045, 357 937.088 C 359.273 936.441, 359.137 936.314, 355.500 935.699 C 350.974 934.933, 346.341 934.997, 340.500 935.907 M 1566.500 935.913 L 1563.500 936.589 1567.500 937.283 C 1572.661 938.180, 1581.947 938.076, 1584.458 937.094 C 1588.406 935.550, 1572.697 934.516, 1566.500 935.913 M 1347.607 947.582 C 1346.600 950.205, 1346.902 951.518, 1349.039 953.811 C 1351.071 955.992, 1351.216 956, 1390.789 955.985 C 1412.630 955.976, 1431.105 955.586, 1431.844 955.117 C 1432.955 954.414, 1432.909 953.725, 1431.584 951.162 C 1430.701 949.456, 1429.114 947.596, 1428.055 947.030 C 1426.830 946.374, 1411.981 946, 1387.173 946 C 1352.570 946, 1348.146 946.177, 1347.607 947.582 M 1529.901 948.185 C 1528.876 950.100, 1529.123 950.720, 1531.894 953.197 L 1535.057 956.023 1575.278 955.761 L 1615.500 955.500 1615.615 953.225 C 1615.685 951.839, 1614.580 949.983, 1612.788 948.475 L 1609.847 946 1570.458 946 L 1531.070 946 1529.901 948.185 M 791.716 971.250 C 783.180 986.686, 770.913 1010.998, 771.668 1010.981 C 772.126 1010.971, 777.702 1000.959, 784.059 988.731 L 795.618 966.500 959.230 966.247 L 1122.841 965.994 1133.982 987.747 C 1140.109 999.711, 1145.538 1009.920, 1146.045 1010.433 C 1149.049 1013.474, 1146.580 1007.972, 1135.855 987.722 L 1123.821 965 959.497 965 L 795.172 965 791.716 971.250 M 869.205 1031.195 C 868.542 1031.858, 868 1032.985, 868 1033.700 C 868 1034.764, 806 1035, 526.286 1035 C 216.125 1035, 184.716 1035.145, 186.138 1036.566 C 186.999 1037.428, 190.358 1038.536, 193.602 1039.030 C 200.450 1040.072, 1599.219 1039.547, 1660.500 1038.479 C 1682.500 1038.096, 1704.888 1037.719, 1710.251 1037.641 C 1715.613 1037.564, 1720.001 1037.205, 1720.001 1036.844 C 1720 1036.483, 1720.794 1036.395, 1721.764 1036.649 C 1722.735 1036.902, 1724.647 1036.664, 1726.014 1036.118 C 1727.665 1035.460, 1614.818 1035.105, 1389.987 1035.063 L 1051.474 1035 1050.487 1032.750 L 1049.500 1030.500 959.955 1030.245 C 891.138 1030.048, 870.132 1030.268, 869.205 1031.195" stroke="none" fill="#2b2929" fill-rule="evenodd"/><path d="M 337.222 36.970 C 326.852 40.705, 319.305 47.845, 314.188 58.765 L 311.500 64.500 311.233 468.500 C 311.077 705.816, 311.339 874.266, 311.869 876.780 L 312.770 881.060 296.135 896.257 C 247.817 940.398, 172.445 1011.595, 169.250 1016.114 C 167.596 1018.453, 167 1020.708, 167 1024.624 C 167 1029.727, 167.151 1030.030, 170.579 1031.788 C 173.732 1033.406, 173.970 1033.780, 172.579 1034.935 C 168.910 1037.980, 171.997 1041.272, 180.582 1043.472 C 185.954 1044.848, 267.147 1044.981, 960.039 1044.753 C 1583.638 1044.548, 1734.211 1044.252, 1737.170 1043.225 C 1739.188 1042.524, 1741.888 1041.091, 1743.170 1040.040 C 1745.172 1038.399, 1745.326 1037.845, 1744.266 1036.105 C 1743.139 1034.254, 1743.420 1033.908, 1747.516 1032.096 C 1751.984 1030.120, 1752 1030.094, 1752 1025.007 C 1752 1018.530, 1750.475 1015.636, 1743.837 1009.517 C 1740.902 1006.810, 1725.450 992.166, 1709.500 976.973 C 1676.014 945.077, 1656.930 927.255, 1627.172 900.090 C 1610.756 885.105, 1606.090 880.318, 1606.704 879.090 C 1607.142 878.216, 1607.615 695.487, 1607.756 473.027 C 1607.987 107.559, 1607.860 68.021, 1606.438 63.027 C 1603.369 52.248, 1595 42.648, 1584.420 37.769 L 1579.500 35.500 961 35.284 C 355.477 35.073, 342.389 35.109, 337.222 36.970 M 955.655 56.829 C 952.148 60.704, 954.975 67, 960.223 67 C 962.744 67, 966 63.425, 966 60.655 C 966 55.686, 959.024 53.106, 955.655 56.829 M 1606.495 471 C 1606.495 690.725, 1606.610 780.612, 1606.750 670.750 C 1606.890 560.888, 1606.890 381.113, 1606.750 271.250 C 1606.610 161.387, 1606.495 251.275, 1606.495 471 M 351 465.500 L 351 844 959.500 844 L 1568 844 1568 465.500 L 1568 87 959.500 87 L 351 87 351 465.500 M 324 918.533 C 292.466 954.860, 291.517 956, 292.822 956 C 294.433 956, 354.102 891.974, 353.459 890.934 C 353.102 890.356, 561.340 890, 900.608 890 C 1201.857 890, 1448.146 889.836, 1447.917 889.636 C 1447.687 889.435, 1200.675 888.987, 899 888.638 L 350.500 888.005 324 918.533 M 1566.690 891.790 C 1565.106 893.541, 1566.577 895.145, 1597.263 925.127 C 1614.993 942.451, 1630.399 956.963, 1631.498 957.376 C 1633.181 958.009, 1633.082 957.683, 1630.871 955.314 C 1609.431 932.336, 1569.664 890.435, 1569.097 890.226 C 1568.688 890.075, 1567.605 890.779, 1566.690 891.790 M 358.098 893.265 C 356.777 893.944, 355.202 895.327, 354.598 896.337 C 353.994 897.348, 351.925 899.841, 350 901.877 C 343.658 908.585, 337.758 915.460, 336.162 918 C 334.413 920.785, 329.372 926.928, 325.086 931.500 C 323.539 933.150, 321.033 936.188, 319.518 938.250 C 318.003 940.313, 316.254 942.015, 315.631 942.033 C 314.137 942.076, 307.479 949.914, 306.610 952.653 C 305.993 954.599, 306.381 954.862, 310.714 955.429 C 313.346 955.774, 331.858 955.930, 351.852 955.778 L 388.204 955.500 391.594 951.500 C 393.458 949.300, 395.242 946.712, 395.559 945.750 C 395.933 944.612, 397.160 944, 399.067 944 C 400.680 944, 402 944.205, 402 944.456 C 402 944.706, 400.875 946.569, 399.500 948.595 C 396.235 953.407, 396.346 954.619, 400.125 955.375 C 404.186 956.187, 471.343 956.169, 476.271 955.355 C 479.501 954.821, 480.506 953.965, 483.271 949.394 C 485.902 945.045, 487.009 944.051, 489.250 944.028 C 490.762 944.013, 492 944.257, 492 944.572 C 492 944.886, 490.855 947.098, 489.456 949.485 C 487.470 952.873, 487.196 954.011, 488.206 954.664 C 489.764 955.671, 555.954 956.404, 564.571 955.509 L 570.643 954.879 573.310 949.440 C 575.690 944.587, 576.315 944, 579.096 944 C 581.199 944, 582.046 944.407, 581.698 945.250 C 581.414 945.938, 580.470 948.163, 579.600 950.197 C 578.362 953.089, 578.288 954.068, 579.259 954.697 C 580.795 955.691, 647.164 956.382, 655.723 955.493 L 661.946 954.847 663.656 949.423 C 665.273 944.292, 665.544 944, 668.683 944 C 670.507 944, 672 944.145, 672 944.322 C 672 944.499, 671.274 946.773, 670.388 949.376 C 669.501 951.979, 669.088 954.422, 669.471 954.804 C 670.335 955.669, 1129.514 956.328, 1136.750 955.475 C 1140.847 954.992, 1142 954.472, 1142 953.106 C 1142 950.336, 1138.909 942, 1137.881 942 C 1136.993 942, 1136.107 940.196, 1134.566 935.250 C 1133.933 933.217, 1134.197 933, 1137.303 933 C 1140.533 933, 1140.817 933.276, 1142.025 937.590 C 1142.732 940.114, 1144.028 942.476, 1144.905 942.840 C 1145.782 943.203, 1146.548 943.950, 1146.607 944.500 C 1146.667 945.050, 1147.280 947.612, 1147.971 950.192 C 1149.225 954.877, 1149.236 954.886, 1154.364 955.514 C 1160.777 956.299, 1231.611 955.726, 1232.453 954.882 C 1233.420 953.913, 1228.974 942.927, 1227.365 942.310 C 1226.041 941.802, 1223 935.927, 1223 933.878 C 1223 933.395, 1224.290 933, 1225.867 933 C 1228.363 933, 1229.002 933.646, 1230.811 938 C 1231.954 940.750, 1233.479 943, 1234.200 943 C 1234.920 943, 1236.546 945.671, 1237.812 948.935 L 1240.113 954.870 1245.306 955.507 C 1252.557 956.396, 1321.224 955.679, 1322.738 954.698 C 1324.362 953.647, 1318.823 942.402, 1316.273 941.574 C 1315.298 941.257, 1313.746 939.199, 1312.824 936.999 L 1311.149 933 1314.012 933 C 1316.414 933, 1317.309 933.796, 1319.566 937.944 C 1322.138 942.669, 1322.484 942.916, 1327.379 943.516 C 1334.422 944.380, 1402.654 943.683, 1403.597 942.737 C 1404.016 942.318, 1403.502 940.293, 1402.455 938.237 C 1401.409 936.182, 1400.390 934.163, 1400.193 933.750 C 1399.995 933.337, 1401.558 933.008, 1403.667 933.018 C 1407.139 933.034, 1407.797 933.491, 1410.662 937.873 C 1414.148 943.206, 1416.192 943.968, 1427.080 943.989 C 1432.601 944, 1432.697 944.051, 1435.982 948.750 C 1437.809 951.362, 1439.996 954.063, 1440.843 954.750 C 1442.017 955.704, 1451.763 955.996, 1481.941 955.985 C 1503.699 955.976, 1522.006 955.639, 1522.624 955.235 C 1524.087 954.279, 1522.900 951.349, 1519.491 947.500 L 1516.834 944.500 1560.344 943.989 C 1584.275 943.708, 1604.166 943.168, 1604.546 942.788 C 1605.412 941.922, 1586.735 921.731, 1583.433 919.964 C 1582.095 919.248, 1581 918.284, 1581 917.823 C 1581 917.361, 1575.468 911.362, 1568.706 904.492 L 1556.412 892 1520.241 892 C 1484.971 892, 1484.043 892.050, 1482.989 894.021 C 1482.394 895.132, 1482.180 896.482, 1482.513 897.021 C 1482.869 897.597, 1481.482 898, 1479.142 898 C 1475.957 898, 1474.769 897.453, 1473.164 895.250 L 1471.162 892.500 1435.831 892.208 C 1400.735 891.919, 1395.367 892.167, 1396.518 894.029 C 1396.848 894.563, 1396.656 895, 1396.090 895 C 1395.525 895, 1395.322 895.675, 1395.638 896.500 C 1396.086 897.667, 1395.391 898, 1392.508 898 C 1389.680 898, 1388.139 897.289, 1386 895 L 1383.198 892 1347.134 892 C 1311.971 892, 1311.043 892.050, 1309.989 894.021 C 1309.394 895.132, 1309.180 896.482, 1309.513 897.021 C 1309.874 897.605, 1308.272 898, 1305.538 898 C 1301.665 898, 1300.787 897.627, 1299.857 895.585 C 1299.251 894.256, 1297.799 892.913, 1296.628 892.598 C 1295.458 892.284, 1278.895 892.021, 1259.821 892.014 C 1229.098 892.002, 1224.957 892.186, 1223.514 893.629 C 1222.618 894.525, 1222.122 895.875, 1222.411 896.629 C 1222.808 897.663, 1221.848 898, 1218.504 898 C 1214.924 898, 1213.842 897.567, 1212.885 895.750 C 1212.234 894.512, 1211.205 893.169, 1210.600 892.765 C 1209.995 892.361, 1193.373 892.024, 1173.663 892.015 L 1137.826 892 1136.694 895 C 1135.679 897.690, 1135.119 898, 1131.281 898 C 1128.926 898, 1127 897.550, 1127 897 C 1127 896.450, 1126.100 895.100, 1125 894 C 1123.075 892.075, 1121.667 892, 1087.571 892 C 1056.697 892, 1051.941 892.202, 1050.571 893.571 C 1049.707 894.436, 1049 895.786, 1049 896.571 C 1049 897.598, 1047.733 898, 1044.500 898 C 1041.267 898, 1040 897.598, 1040 896.571 C 1040 895.786, 1039.293 894.436, 1038.429 893.571 C 1037.058 892.201, 1032.294 892.002, 1001.179 892.015 C 981.555 892.024, 964.915 892.402, 964.200 892.855 C 963.485 893.309, 962.827 894.652, 962.737 895.840 C 962.595 897.730, 961.976 898, 957.787 898 C 954.305 898, 953 897.611, 953 896.571 C 953 895.786, 952.293 894.436, 951.429 893.571 C 950.059 892.202, 945.310 892, 914.500 892 C 883.690 892, 878.941 892.202, 877.571 893.571 C 876.707 894.436, 876 895.786, 876 896.571 C 876 897.619, 874.667 898, 871 898 C 866.393 898, 866 897.812, 866 895.607 C 866 894.291, 865.288 892.941, 864.418 892.607 C 863.548 892.273, 846.930 892, 827.490 892 C 796.690 892, 791.941 892.202, 790.571 893.571 C 789.707 894.436, 789 895.786, 789 896.571 C 789 897.598, 787.733 898, 784.500 898 C 781.267 898, 780 897.598, 780 896.571 C 780 895.786, 779.293 894.436, 778.429 893.571 C 777.059 892.202, 772.303 892, 741.429 892 C 707.333 892, 705.925 892.075, 704 894 C 702.900 895.100, 702 896.424, 702 896.943 C 702 897.461, 700.087 898.023, 697.750 898.193 C 693.807 898.478, 693.428 898.283, 692.500 895.500 L 691.500 892.500 656.500 892.221 C 637.250 892.068, 620.496 892.187, 619.268 892.486 C 618.041 892.784, 616.342 894.372, 615.493 896.014 C 614.165 898.581, 613.382 899, 609.907 899 C 606.395 899, 605.944 898.752, 606.467 897.105 C 606.818 895.999, 606.400 894.543, 605.463 893.605 C 604.050 892.193, 599.694 892.002, 569.179 892.014 C 550.105 892.021, 533.566 892.278, 532.424 892.585 C 531.281 892.892, 529.569 894.460, 528.617 896.071 C 527.263 898.364, 526.174 899, 523.602 899 C 520.690 899, 520.009 899.567, 517.597 904 C 515.275 908.265, 514.439 909, 511.908 909 L 508.940 909 511.220 905.008 C 512.490 902.783, 514.265 901.012, 515.227 901.008 C 517.960 900.996, 520.382 896.582, 519.036 894.067 C 517.949 892.036, 517.297 892, 481.833 892 L 445.736 892 442.435 895.500 C 440.620 897.425, 438.505 899, 437.737 899 C 436.968 899, 434.885 901.025, 433.107 903.500 C 430.766 906.760, 429.191 908, 427.390 908 L 424.904 908 428.202 903.382 C 430.016 900.842, 432.083 897.969, 432.795 896.998 C 433.875 895.525, 433.822 894.965, 432.473 893.616 C 431.046 892.189, 426.752 892.002, 395.679 892.015 C 369.748 892.026, 359.869 892.354, 358.098 893.265 M 552.573 900.890 C 550.785 901.596, 550.773 901.699, 552.405 902.325 C 555.034 903.334, 556.735 903.121, 555 902 C 553.825 901.241, 554.078 901.027, 556.167 901.015 C 557.633 901.007, 559.012 901.535, 559.229 902.188 C 559.516 903.049, 560.226 902.955, 561.809 901.846 C 563.904 900.379, 563.800 900.313, 559.246 900.224 C 556.636 900.173, 553.633 900.473, 552.573 900.890 M 972.982 901.011 C 972.124 901.541, 972.099 901.943, 972.893 902.434 C 973.502 902.810, 974 902.744, 974 902.287 C 974 901.283, 982.274 901.433, 983.947 902.467 C 984.599 902.870, 985.367 902.967, 985.652 902.681 C 987.488 900.845, 975.752 899.299, 972.982 901.011 M 596 905 L 593.959 909 596.959 909 C 599.453 909, 600.304 908.324, 602 905 L 604.041 901 601.041 901 C 598.547 901, 597.696 901.676, 596 905 M 680.946 903.750 C 680.393 905.263, 679.743 907.063, 679.502 907.750 C 679.215 908.567, 680.086 909, 682.018 909 C 684.469 909, 685.231 908.382, 686.487 905.378 C 688.420 900.751, 688.506 901, 684.975 901 C 682.586 901, 681.739 901.578, 680.946 903.750 M 765.647 902.750 C 765.378 903.712, 764.868 905.513, 764.512 906.750 C 763.941 908.738, 764.226 909, 766.957 909 C 769.356 909, 770.268 908.425, 771.025 906.435 C 772.658 902.138, 772.248 901, 769.067 901 C 767.127 901, 765.970 901.592, 765.647 902.750 M 850 903.418 C 850 904.748, 849.714 906.581, 849.365 907.492 C 848.838 908.864, 849.308 909.092, 852.115 908.823 C 855.236 908.525, 855.524 908.208, 855.810 904.750 C 856.107 901.166, 855.985 901, 853.060 901 C 850.490 901, 850 901.387, 850 903.418 M 934.186 904.682 C 934.474 908.188, 934.745 908.500, 937.500 908.500 C 940.262 908.500, 940.500 908.222, 940.500 905 C 940.500 901.768, 940.246 901.476, 937.186 901.182 C 933.910 900.867, 933.875 900.909, 934.186 904.682 M 1019.190 904.750 C 1019.474 908.181, 1019.755 908.500, 1022.500 908.500 C 1024.287 908.500, 1025.460 907.994, 1025.400 907.250 C 1025.345 906.563, 1025.233 904.875, 1025.150 903.500 C 1025.025 901.411, 1024.497 901, 1021.940 901 C 1019.015 901, 1018.893 901.166, 1019.190 904.750 M 1103 902.435 C 1103 903.224, 1103.439 905.024, 1103.975 906.435 C 1104.736 908.435, 1105.641 909, 1108.082 909 C 1110.536 909, 1111.082 908.655, 1110.603 907.407 C 1110.267 906.531, 1109.720 904.731, 1109.387 903.407 C 1108.923 901.559, 1108.112 901, 1105.892 901 C 1104.046 901, 1103 901.519, 1103 902.435 M 1187 901.378 C 1187 901.586, 1187.681 903.386, 1188.513 905.378 C 1189.677 908.164, 1190.601 909, 1192.513 909 C 1195.281 909, 1195.644 907.508, 1193.839 903.547 C 1192.993 901.688, 1191.912 901, 1189.839 901 C 1188.278 901, 1187 901.170, 1187 901.378 M 1272 901.953 C 1272 902.477, 1272.522 904.052, 1273.161 905.453 C 1274.007 907.312, 1275.088 908, 1277.161 908 C 1280.456 908, 1280.499 907.866, 1278.474 903.950 C 1277.408 901.889, 1276.203 901, 1274.474 901 C 1273.113 901, 1272 901.429, 1272 901.953 M 1357.701 904.500 C 1359.025 907.276, 1359.953 908, 1362.185 908 C 1365.550 908, 1365.611 907.666, 1362.932 903.904 C 1361.626 902.071, 1359.973 901, 1358.448 901 C 1356.036 901, 1356.035 901.005, 1357.701 904.500 M 1441.199 901.750 C 1444.258 908.030, 1444.223 908, 1448.696 908 C 1453.357 908, 1453.439 907.556, 1449.657 902.750 C 1448.314 901.044, 1440.399 900.108, 1441.199 901.750 M 1062 913.418 C 1062 917.620, 1063.046 919, 1066.232 919 C 1069.079 919, 1069.215 918.823, 1068.625 915.875 C 1068.281 914.156, 1068 912.356, 1068 911.875 C 1068 911.394, 1066.650 911, 1065 911 C 1062.494 911, 1062 911.398, 1062 913.418 M 1147.369 912.519 C 1147.721 913.436, 1148.280 915.269, 1148.613 916.593 C 1149.100 918.535, 1149.863 919, 1152.556 919 L 1155.895 919 1154.603 915.250 C 1153.506 912.065, 1152.816 911.451, 1150.021 911.177 C 1147.293 910.909, 1146.839 911.139, 1147.369 912.519 M 1233.397 912.593 C 1233.733 913.469, 1234.280 915.269, 1234.613 916.593 C 1235.099 918.529, 1235.864 919, 1238.528 919 L 1241.839 919 1240.268 915 C 1238.928 911.590, 1238.261 911, 1235.741 911 C 1233.449 911, 1232.923 911.357, 1233.397 912.593 M 1319 911.919 C 1319 912.424, 1319.787 914.222, 1320.750 915.913 C 1322.036 918.172, 1323.229 918.989, 1325.250 918.994 C 1328.548 919.001, 1328.543 919.034, 1325.901 914.557 C 1324.423 912.051, 1323.093 911, 1321.401 911 C 1320.081 911, 1319 911.414, 1319 911.919 M 1405.932 913.904 C 1407.069 915.502, 1408 917.302, 1408 917.904 C 1408 918.507, 1409.350 919, 1411 919 C 1414.594 919, 1414.609 918.911, 1411.750 914.498 C 1410.065 911.896, 1408.793 911.022, 1406.682 911.012 L 1403.864 911 1405.932 913.904 M 1492.685 914.979 C 1494.813 917.986, 1496.185 918.963, 1498.306 918.979 L 1501.113 919 1497.806 915.018 C 1495.714 912.498, 1493.650 911.029, 1492.185 911.018 L 1489.870 911 1492.685 914.979 M 461.068 914.904 C 458.370 918.693, 458.440 919, 462 919 C 463.881 919, 465 918.486, 465 917.622 C 465 916.865, 465.675 915.685, 466.500 915 C 468.699 913.175, 468.334 912, 465.568 912 C 464.025 912, 462.380 913.062, 461.068 914.904 M 546.701 915.500 L 545.032 919 547.856 919 C 550.553 919, 550.970 918.561, 553.801 912.750 C 554.002 912.337, 552.863 912, 551.269 912 C 548.941 912, 548.042 912.689, 546.701 915.500 M 583.500 913.576 C 584.810 914.567, 586.363 914.843, 588 914.376 C 589.375 913.984, 591.625 913.746, 593 913.848 C 599.545 914.330, 601.206 914.193, 602.309 913.078 C 603.237 912.140, 602.846 912.121, 600.538 912.993 C 598.320 913.831, 597.022 913.815, 595.369 912.930 C 593.721 912.048, 592.355 912.029, 589.982 912.856 C 587.855 913.598, 586.195 913.639, 584.967 912.982 C 582.178 911.490, 581.242 911.869, 583.500 913.576 M 632.945 914.644 C 632.392 916.098, 631.702 917.673, 631.411 918.144 C 631.120 918.615, 632.431 919, 634.324 919 C 636.744 919, 637.916 918.480, 638.270 917.250 C 638.547 916.288, 639.097 914.712, 639.494 913.750 C 640.089 912.302, 639.673 912, 637.082 912 C 634.616 912, 633.737 912.562, 632.945 914.644 M 718.261 915.500 L 717.187 919 720.426 919 C 723.256 919, 723.800 918.558, 724.739 915.500 L 725.813 912 722.574 912 C 719.744 912, 719.200 912.442, 718.261 915.500 M 804.630 914.250 C 803.486 918.521, 803.842 919.142, 807.250 918.813 C 810.108 918.538, 810.538 918.108, 810.813 915.250 C 811.103 912.248, 810.902 912, 808.180 912 C 805.969 912, 805.083 912.562, 804.630 914.250 M 890 915.500 C 890 918.833, 890.167 919, 893.500 919 C 896.833 919, 897 918.833, 897 915.500 C 897 912.167, 896.833 912, 893.500 912 C 890.167 912, 890 912.167, 890 915.500 M 976 915.500 C 976 918.833, 976.167 919, 979.500 919 C 982.833 919, 983 918.833, 983 915.500 C 983 912.167, 982.833 912, 979.500 912 C 976.167 912, 976 912.167, 976 915.500 M 473.250 925.498 C 472.012 927.409, 471 929.203, 471 929.486 C 471 929.769, 472.688 929.996, 474.750 929.992 C 478.092 929.984, 478.736 929.549, 480.667 925.992 L 482.834 922 479.167 922.012 C 476.086 922.023, 475.140 922.580, 473.250 925.498 M 562 926 L 559.959 930 563.230 929.990 C 566.093 929.981, 566.708 929.484, 568.176 925.990 L 569.851 922 566.946 922 C 564.563 922, 563.674 922.719, 562 926 M 649.513 925.622 C 647.581 930.246, 647.498 930, 650.987 930 C 653.474 930, 654.226 929.394, 655.487 926.378 C 657.419 921.754, 657.502 922, 654.013 922 C 651.526 922, 650.774 922.606, 649.513 925.622 M 736.625 925.125 C 735.685 929.824, 735.769 930, 738.933 930 C 741.869 930, 741.924 929.926, 743.647 923.750 C 744.043 922.328, 743.490 922, 740.692 922 C 737.637 922, 737.180 922.351, 736.625 925.125 M 824 924.418 C 824 925.748, 823.727 927.548, 823.393 928.418 C 822.911 929.674, 823.504 930, 826.268 930 C 829.368 930, 829.819 929.657, 830.375 926.875 C 831.325 922.124, 831.252 922, 827.500 922 C 824.465 922, 824 922.321, 824 924.418 M 911 926 C 911 929.905, 911.083 930, 914.500 930 C 917.917 930, 918 929.905, 918 926 C 918 922.095, 917.917 922, 914.500 922 C 911.083 922, 911 922.095, 911 926 M 998 924.418 C 998 928.568, 999.054 930, 1002.107 930 C 1004.816 930, 1005 929.745, 1005 926 C 1005 922.095, 1004.917 922, 1001.500 922 C 998.465 922, 998 922.321, 998 924.418 M 1085.538 925.250 C 1086.507 929.769, 1086.731 930, 1090.138 930 C 1093.022 930, 1093.127 929.853, 1092.462 926.750 C 1091.493 922.231, 1091.269 922, 1087.862 922 C 1084.978 922, 1084.873 922.147, 1085.538 925.250 M 1172.369 923.519 C 1172.721 924.436, 1173.280 926.269, 1173.613 927.593 C 1174.100 929.535, 1174.863 930, 1177.556 930 L 1180.895 930 1179.603 926.250 C 1178.506 923.065, 1177.816 922.451, 1175.021 922.177 C 1172.293 921.909, 1171.839 922.139, 1172.369 923.519 M 1259 922.466 C 1259 922.722, 1259.758 924.522, 1260.685 926.466 C 1262.025 929.275, 1262.948 930, 1265.185 930 C 1268.483 930, 1268.413 930.234, 1266.487 925.622 C 1265.226 922.606, 1264.474 922, 1261.987 922 C 1260.344 922, 1259 922.210, 1259 922.466 M 1348 926 C 1349.706 929.344, 1350.540 930, 1353.084 930 L 1356.128 930 1353.880 926 C 1352.082 922.802, 1351.063 922, 1348.796 922 L 1345.959 922 1348 926 M 1435.619 926 C 1438.207 929.911, 1438.396 930, 1444.133 930 C 1447.360 930, 1450 929.769, 1450 929.486 C 1450 929.203, 1448.987 927.409, 1447.750 925.498 C 1445.578 922.146, 1445.282 922.024, 1439.236 922.012 L 1432.972 922 1435.619 926 M 351 924 C 349.075 924.405, 348.239 924.796, 349.143 924.868 C 350.047 924.941, 351.045 925.675, 351.362 926.500 C 352.142 928.533, 357.236 928.371, 363.796 926.106 L 369.091 924.276 365.296 923.649 C 360.697 922.889, 355.693 923.012, 351 924 M 512.099 936.557 C 510.944 938.514, 510 940.314, 510 940.557 C 510 940.801, 511.942 941, 514.315 941 C 518.269 941, 518.770 940.705, 520.315 937.466 C 521.242 935.522, 522 933.722, 522 933.466 C 522 933.210, 520.244 933, 518.099 933 C 514.688 933, 513.934 933.447, 512.099 936.557 M 603 937 L 600.959 941 604.294 941 C 607.128 941, 607.883 940.468, 609.315 937.466 C 611.486 932.912, 611.512 933, 608.020 933 C 605.551 933, 604.691 933.685, 603 937 M 691.732 937 L 690.161 941 693.521 941 C 697.286 941, 697.484 940.809, 698.462 936.250 C 699.124 933.165, 699.011 933, 696.231 933 C 693.744 933, 693.067 933.602, 691.732 937 M 780.630 935.250 C 779.384 939.900, 779.844 941, 783.031 941 C 786.096 941, 786.352 940.696, 787.436 935.750 C 788.001 933.171, 787.827 933, 784.636 933 C 781.953 933, 781.106 933.476, 780.630 935.250 M 869 937 C 869 940.905, 869.083 941, 872.500 941 C 875.917 941, 876 940.905, 876 937 C 876 933.095, 875.917 933, 872.500 933 C 869.083 933, 869 933.095, 869 937 M 958 937 C 958 940.929, 958.064 941, 961.617 941 C 964.879 941, 965.174 940.780, 964.630 938.750 C 964.299 937.513, 964.021 935.712, 964.014 934.750 C 964.004 933.475, 963.185 933, 961 933 C 958.167 933, 958 933.222, 958 937 M 1046.014 934.750 C 1046.051 939.515, 1047.170 941, 1050.724 941 C 1053.496 941, 1054.089 940.674, 1053.607 939.418 C 1053.273 938.548, 1053 936.748, 1053 935.418 C 1053 933.321, 1052.535 933, 1049.500 933 C 1046.828 933, 1046.003 933.414, 1046.014 934.750 M 340.500 935.907 C 336.874 936.472, 336.734 936.597, 339 937.251 C 342.112 938.149, 353.643 938.045, 357 937.088 C 359.273 936.441, 359.137 936.314, 355.500 935.699 C 350.974 934.933, 346.341 934.997, 340.500 935.907 M 1566.500 935.913 L 1563.500 936.589 1567.500 937.283 C 1572.661 938.180, 1581.947 938.076, 1584.458 937.094 C 1588.406 935.550, 1572.697 934.516, 1566.500 935.913 M 1347.607 947.582 C 1346.600 950.205, 1346.902 951.518, 1349.039 953.811 C 1351.071 955.992, 1351.216 956, 1390.789 955.985 C 1412.630 955.976, 1431.105 955.586, 1431.844 955.117 C 1432.955 954.414, 1432.909 953.725, 1431.584 951.162 C 1430.701 949.456, 1429.114 947.596, 1428.055 947.030 C 1426.830 946.374, 1411.981 946, 1387.173 946 C 1352.570 946, 1348.146 946.177, 1347.607 947.582 M 1529.901 948.185 C 1528.876 950.100, 1529.123 950.720, 1531.894 953.197 L 1535.057 956.023 1575.278 955.761 L 1615.500 955.500 1615.615 953.225 C 1615.685 951.839, 1614.580 949.983, 1612.788 948.475 L 1609.847 946 1570.458 946 L 1531.070 946 1529.901 948.185 M 791.716 971.250 C 783.180 986.686, 770.913 1010.998, 771.668 1010.981 C 772.126 1010.971, 777.702 1000.959, 784.059 988.731 L 795.618 966.500 959.230 966.247 L 1122.841 965.994 1133.982 987.747 C 1140.109 999.711, 1145.538 1009.920, 1146.045 1010.433 C 1149.049 1013.474, 1146.580 1007.972, 1135.855 987.722 L 1123.821 965 959.497 965 L 795.172 965 791.716 971.250 M 869.205 1031.195 C 868.542 1031.858, 868 1032.985, 868 1033.700 C 868 1034.764, 806 1035, 526.286 1035 C 216.125 1035, 184.716 1035.145, 186.138 1036.566 C 186.999 1037.428, 190.358 1038.536, 193.602 1039.030 C 200.450 1040.072, 1599.219 1039.547, 1660.500 1038.479 C 1682.500 1038.096, 1704.888 1037.719, 1710.251 1037.641 C 1715.613 1037.564, 1720.001 1037.205, 1720.001 1036.844 C 1720 1036.483, 1720.794 1036.395, 1721.764 1036.649 C 1722.735 1036.902, 1724.647 1036.664, 1726.014 1036.118 C 1727.665 1035.460, 1614.818 1035.105, 1389.987 1035.063 L 1051.474 1035 1050.487 1032.750 L 1049.500 1030.500 959.955 1030.245 C 891.138 1030.048, 870.132 1030.268, 869.205 1031.195" stroke="none" fill="#d1d0d1" fill-rule="evenodd"/></svg>